HIERARCHY
ROOT Hips
{
	OFFSET 0.000000 0.000000 0.000000
	CHANNELS 6 Xposition Yposition Zposition Zrotation Yrotation Xrotation 
	JOINT LHipJoint
	{
		OFFSET 0.000000 0.000000 0.000000
		CHANNELS 3 Zrotation Yrotation Xrotation
		JOINT LeftUpLeg
		{
			OFFSET 1.363060 -1.794630 0.839290
			CHANNELS 3 Zrotation Yrotation Xrotation
			JOINT LeftLeg
			{
				OFFSET 2.448110 -6.726130 0.000000
				CHANNELS 3 Zrotation Yrotation Xrotation
				JOINT LeftFoot
				{
					OFFSET 2.562200 -7.039590 0.000000
					CHANNELS 3 Zrotation Yrotation Xrotation
					JOINT LeftToeBase
					{
						OFFSET 0.157640 -0.433110 2.322550
						CHANNELS 3 Zrotation Yrotation Xrotation
						End Site
						{
							OFFSET 0.000000 0.000000 0.000000
						}
					}
				}
			}
		}
	}
	JOINT RHipJoint
	{
		OFFSET 0.000000 0.000000 0.000000
		CHANNELS 3 Zrotation Yrotation Xrotation
		JOINT RightUpLeg
		{
			OFFSET -1.305520 -1.794630 0.839290
			CHANNELS 3 Zrotation Yrotation Xrotation
			JOINT RightLeg
			{
				OFFSET -2.542530 -6.985550 0.000000
				CHANNELS 3 Zrotation Yrotation Xrotation
				JOINT RightFoot
				{
					OFFSET -2.568260 -7.056230 0.000000
					CHANNELS 3 Zrotation Yrotation Xrotation
					JOINT RightToeBase
					{
						OFFSET -0.164730 -0.452590 2.363150
						CHANNELS 3 Zrotation Yrotation Xrotation
						End Site
						{
							OFFSET 0.000000 0.000000 0.000000
						}
					}
				}
			}
		}
	}
	JOINT LowerBack
	{
		OFFSET 0.000000 0.000000 0.000000
		CHANNELS 3 Zrotation Yrotation Xrotation
		JOINT Spine
		{
			OFFSET 0.028270 2.035590 -0.193380
			CHANNELS 3 Zrotation Yrotation Xrotation
			JOINT Spine1
			{
				OFFSET 0.056720 2.048850 -0.042750
				CHANNELS 3 Zrotation Yrotation Xrotation
				JOINT Neck
				{
					OFFSET 0.000000 0.000000 0.000000
					CHANNELS 3 Zrotation Yrotation Xrotation
					JOINT Neck1
					{
						OFFSET -0.054170 1.746240 0.172020
						CHANNELS 3 Zrotation Yrotation Xrotation
						JOINT Head
						{
							OFFSET 0.104070 1.761360 -0.123970
							CHANNELS 3 Zrotation Yrotation Xrotation
							End Site
							{
								OFFSET 0.000000 0.000000 0.000000
							}
						}
					}
				}
				JOINT LeftShoulder
				{
					OFFSET 0.000000 0.000000 0.000000
					CHANNELS 3 Zrotation Yrotation Xrotation
					JOINT LeftArm
					{
						OFFSET 3.362410 1.200890 -0.311210
						CHANNELS 3 Zrotation Yrotation Xrotation
						JOINT LeftForeArm
						{
							OFFSET 4.983000 -0.000000 -0.000000
							CHANNELS 3 Zrotation Yrotation Xrotation
							JOINT LeftHand
							{
								OFFSET 3.483560 -0.000000 -0.000000
								CHANNELS 3 Zrotation Yrotation Xrotation
								JOINT LeftFingerBase
								{
									OFFSET 0.000000 0.000000 0.000000
									CHANNELS 3 Zrotation Yrotation Xrotation
									JOINT LeftHandIndex1
									{
										OFFSET 0.715260 -0.000000 -0.000000
										CHANNELS 3 Zrotation Yrotation Xrotation
										End Site
										{
											OFFSET 0.000000 0.000000 0.000000
										}
									}
								}
								JOINT LThumb
								{
									OFFSET 0.000000 0.000000 0.000000
									CHANNELS 3 Zrotation Yrotation Xrotation
									End Site
									{
										OFFSET 0.000000 0.000000 0.000000
									}
								}
							}
						}
					}
				}
				JOINT RightShoulder
				{
					OFFSET 0.000000 0.000000 0.000000
					CHANNELS 3 Zrotation Yrotation Xrotation
					JOINT RightArm
					{
						OFFSET -3.136600 1.374050 -0.404650
						CHANNELS 3 Zrotation Yrotation Xrotation
						JOINT RightForeArm
						{
							OFFSET -5.241900 -0.000000 -0.000000
							CHANNELS 3 Zrotation Yrotation Xrotation
							JOINT RightHand
							{
								OFFSET -3.444170 -0.000000 -0.000000
								CHANNELS 3 Zrotation Yrotation Xrotation
								JOINT RightFingerBase
								{
									OFFSET 0.000000 0.000000 0.000000
									CHANNELS 3 Zrotation Yrotation Xrotation
									JOINT RightHandIndex1
									{
										OFFSET -0.622530 -0.000000 -0.000000
										CHANNELS 3 Zrotation Yrotation Xrotation
										End Site
										{
											OFFSET 0.000000 0.000000 0.000000
										}
									}
								}
								JOINT RThumb
								{
									OFFSET 0.000000 0.000000 0.000000
									CHANNELS 3 Zrotation Yrotation Xrotation
									End Site
									{
										OFFSET 0.000000 0.000000 0.000000
									}
								}
							}
						}
					}
				}
			}
		}
	}
}
MOTION
Frames: 4
Frame Time: 0.008333
-1.029360 15.965796 1.226817 11.742978 77.156213 43.168852 -10.895477 0.090858 -2.792143 -5.006416 0.086336 -38.061234 0.075937 3.715060 64.677568 3.593250 20.368292 -17.107232 -3.127200 -0.000000 -14.344700 7.971444 0.662614 0.402597 17.026728 15.597458 -47.030120 1.434219 -2.634024 52.484920 -3.117074 -4.535838 -31.985026 -177.065600 -0.000000 -6.201101 3.204721 -2.175418 5.682014 -0.057635 -2.162426 -1.595847 -5.924856 -2.279546 0.641065 12.745867 5.825899 3.023862 -3.083554 -0.305807 2.492169 0.000000 0.000000 0.000000 -7.073222 -7.981066 2.144839 -66.246711 -31.371753 3.132847 -2.253947 -16.582982 -0.047070 15.388025 -2.300961 -0.340775 -0.139524 0.200372 0.000000 0.000000 0.000000 0.000000 0.000000 0.000000 0.000000 16.653933 3.017374 1.403275 57.046353 23.343014 -21.030988 1.589136 13.331878 -0.017207 -12.558532 10.981851 -1.240180 0.097155 -0.168491 -0.000000 0.000000 0.000000 0.000000 0.000000 0.000000 0.000000 
-0.854896 16.054362 1.317229 10.893779 76.432482 42.873660 -10.650805 -0.093791 -2.532923 -5.036571 -0.819516 -39.533266 -0.015494 3.553412 63.327700 3.662829 20.296477 -17.658490 -3.286100 -0.000000 -13.916100 7.988032 0.587020 0.486792 16.952118 15.791404 -45.904080 1.539733 -2.447031 50.582225 -3.023875 -4.191730 -31.372087 -177.249400 0.000000 -6.912000 2.762402 -1.956400 5.370243 -0.171719 -1.952071 -1.666438 -5.958672 -2.072560 0.655195 12.704914 5.994300 3.041883 -3.117489 -0.309051 2.492029 0.000000 0.000000 0.000000 -7.078207 -8.061740 2.398271 -65.480864 -30.450166 0.144338 -2.247319 -11.445630 -0.045593 15.660164 -1.409783 -0.220391 -0.126288 0.181304 0.000000 0.000000 0.000000 0.000000 0.000000 0.000000 0.000000 16.813286 3.333006 1.198989 59.289726 23.846122 -16.816612 1.699471 15.117218 -0.013206 -10.715807 10.673936 -1.028231 0.091123 -0.166527 -0.000000 0.000000 0.000000 0.000000 0.000000 0.000000 0.000000 
-0.680404 16.150857 1.408999 10.012713 75.672011 42.560494 -10.391349 -0.269171 -2.267206 -4.993762 -1.714608 -40.893635 -0.119772 3.367290 61.615879 3.732175 20.191188 -18.099801 -3.396800 -0.000000 -13.690900 8.006403 0.511362 0.556541 16.868412 15.934288 -44.698400 1.659916 -2.245009 48.462127 -2.882077 -3.694722 -30.556551 -177.500300 0.000000 -7.627300 2.307574 -1.740077 5.079236 -0.290950 -1.741343 -1.737296 -5.994657 -1.865015 0.648095 12.657561 6.191671 3.082346 -3.156020 -0.312787 2.497237 0.000000 0.000000 0.000000 -7.079076 -8.148444 2.643721 -64.580255 -29.391654 -2.935582 -2.207198 -6.674863 -0.044750 15.953350 -0.563747 -0.103093 -0.112857 0.166957 0.000000 0.000000 0.000000 0.000000 0.000000 0.000000 0.000000 16.993465 3.688873 1.001911 61.472351 24.276604 -12.293104 1.798645 17.019080 -0.009301 -8.694402 10.455883 -0.817083 0.081428 -0.164895 -0.000000 0.000000 0.000000 0.000000 0.000000 0.000000 0.000000 
-0.505430 16.254476 1.501943 9.103221 74.874245 42.229345 -10.120062 -0.431110 -1.995740 -4.876777 -2.586377 -42.125154 -0.236006 3.156190 59.529917 3.797136 20.029262 -18.435944 -3.457100 -0.000000 -13.638400 8.029595 0.435824 0.611206 16.777258 16.018574 -43.421391 1.792822 -2.030017 46.135444 -2.679635 -3.020453 -29.476531 -177.823900 -0.000000 -8.218200 1.845384 -1.530557 4.809880 -0.413947 -1.534530 -1.807085 -6.033283 -1.661062 0.624833 12.598570 6.394649 3.136287 -3.199930 -0.316972 2.505408 0.000000 0.000000 0.000000 -7.085410 -8.215946 2.873698 -63.569697 -28.132056 -5.749246 -2.151886 -2.457951 -0.044357 16.253494 0.325399 0.024223 -0.100372 0.155956 0.000000 0.000000 0.000000 0.000000 0.000000 0.000000 0.000000 17.191850 4.059645 0.814632 63.584748 24.696921 -7.561585 1.882366 18.975167 -0.005701 -6.590029 10.383998 -0.615042 0.068449 -0.164347 -0.000000 0.000000 0.000000 0.000000 0.000000 0.000000 0.000000 
